<svg id="wave" style="transform:rotate(0deg); transition: 0.3s" viewBox="0 0 1440 100" version="1.1" xmlns="http://www.w3.org/2000/svg"><defs><linearGradient id="sw-gradient-0" x1="0" x2="0" y1="1" y2="0"><stop stop-color="rgba(62, 169.425, 243, 1)" offset="0%"></stop><stop stop-color="rgba(11, 106.224, 255, 1)" offset="100%"></stop></linearGradient></defs><path style="transform:translate(0, 0px); opacity:1" fill="url(#sw-gradient-0)" d="M0,50L60,45C120,40,240,30,360,35C480,40,600,60,720,65C840,70,960,60,1080,48.3C1200,37,1320,23,1440,25C1560,27,1680,43,1800,48.3C1920,53,2040,47,2160,50C2280,53,2400,67,2520,63.3C2640,60,2760,40,2880,35C3000,30,3120,40,3240,51.7C3360,63,3480,77,3600,75C3720,73,3840,57,3960,56.7C4080,57,4200,73,4320,68.3C4440,63,4560,37,4680,31.7C4800,27,4920,43,5040,53.3C5160,63,5280,67,5400,61.7C5520,57,5640,43,5760,36.7C5880,30,6000,30,6120,26.7C6240,23,6360,17,6480,16.7C6600,17,6720,23,6840,25C6960,27,7080,23,7200,25C7320,27,7440,33,7560,31.7C7680,30,7800,20,7920,26.7C8040,33,8160,57,8280,70C8400,83,8520,87,8580,88.3L8640,90L8640,100L8580,100C8520,100,8400,100,8280,100C8160,100,8040,100,7920,100C7800,100,7680,100,7560,100C7440,100,7320,100,7200,100C7080,100,6960,100,6840,100C6720,100,6600,100,6480,100C6360,100,6240,100,6120,100C6000,100,5880,100,5760,100C5640,100,5520,100,5400,100C5280,100,5160,100,5040,100C4920,100,4800,100,4680,100C4560,100,4440,100,4320,100C4200,100,4080,100,3960,100C3840,100,3720,100,3600,100C3480,100,3360,100,3240,100C3120,100,3000,100,2880,100C2760,100,2640,100,2520,100C2400,100,2280,100,2160,100C2040,100,1920,100,1800,100C1680,100,1560,100,1440,100C1320,100,1200,100,1080,100C960,100,840,100,720,100C600,100,480,100,360,100C240,100,120,100,60,100L0,100Z"></path></svg>